<svg xmlns="http://www.w3.org/2000/svg" viewBox="80 202 864 864" fill="none">
    <g stroke-linecap="round" stroke-linejoin="round">
        <line x1="220" y1="560" x2="90" y2="540" stroke="#0a0a0a" stroke-width="22"/>
        <line x1="220" y1="620" x2="110" y2="650" stroke="#0a0a0a" stroke-width="22"/>
        <line x1="804" y1="560" x2="934" y2="540" stroke="#0a0a0a" stroke-width="22"/>
        <line x1="804" y1="620" x2="914" y2="650" stroke="#0a0a0a" stroke-width="22"/>
        <path d="M 512 812 C 350 812 250 662 250 512 L 250 362 L 340 212 L 430 362 C 470 342 554 342 594 362 L 684 212 L 774 362 L 774 512 C 774 662 674 812 512 812 Z" fill="rgba(10,10,10,0.12)" stroke="#0a0a0a" stroke-width="30"/>
        <path d="M 372 500 C 392 460 432 460 452 500" fill="none" stroke="#0a0a0a" stroke-width="24"/>
        <path d="M 572 500 C 592 460 632 460 652 500" fill="none" stroke="#0a0a0a" stroke-width="24"/>
        <path d="M 512 590 L 482 550 L 542 550 Z" fill="#0a0a0a" stroke="#0a0a0a" stroke-width="14"/>
        <line x1="512" y1="812" x2="350" y2="812" stroke="#0a0a0a" stroke-width="11" stroke-dasharray="14 14"/>
        <line x1="512" y1="812" x2="674" y2="812" stroke="#0a0a0a" stroke-width="11" stroke-dasharray="14 14"/>
        <circle cx="350" cy="812" r="8" fill="#ffffff" stroke="#0a0a0a" stroke-width="7"/>
        <circle cx="674" cy="812" r="8" fill="#ffffff" stroke="#0a0a0a" stroke-width="7"/>
        <rect x="502" y="802" width="20" height="20" rx="2" fill="#ffffff" stroke="#0a0a0a" stroke-width="7"/>
        <rect x="240" y="502" width="20" height="20" rx="2" fill="#ffffff" stroke="#0a0a0a" stroke-width="7"/>
        <rect x="240" y="352" width="20" height="20" rx="2" fill="#ffffff" stroke="#0a0a0a" stroke-width="7"/>
        <rect x="330" y="202" width="20" height="20" rx="2" fill="#ffffff" stroke="#0a0a0a" stroke-width="7"/>
        <rect x="420" y="352" width="20" height="20" rx="2" fill="#ffffff" stroke="#0a0a0a" stroke-width="7"/>
        <rect x="584" y="352" width="20" height="20" rx="2" fill="#ffffff" stroke="#0a0a0a" stroke-width="7"/>
        <rect x="674" y="202" width="20" height="20" rx="2" fill="#ffffff" stroke="#0a0a0a" stroke-width="7"/>
        <rect x="764" y="352" width="20" height="20" rx="2" fill="#ffffff" stroke="#0a0a0a" stroke-width="7"/>
        <rect x="764" y="502" width="20" height="20" rx="2" fill="#ffffff" stroke="#0a0a0a" stroke-width="7"/>
        <rect x="80" y="530" width="20" height="20" rx="2" fill="#ffffff" stroke="#0a0a0a" stroke-width="7"/>
        <rect x="100" y="640" width="20" height="20" rx="2" fill="#ffffff" stroke="#0a0a0a" stroke-width="7"/>
        <rect x="924" y="530" width="20" height="20" rx="2" fill="#ffffff" stroke="#0a0a0a" stroke-width="7"/>
        <rect x="904" y="640" width="20" height="20" rx="2" fill="#ffffff" stroke="#0a0a0a" stroke-width="7"/>
        <g transform="translate(674, 812) rotate(-45) scale(1.2)">
            <path d="M 0 0 C -15 25 -25 50 -25 80 L 25 80 C 25 50 15 25 0 0 Z" fill="#0a0a0a"/>
            <line x1="0" y1="25" x2="0" y2="60" stroke="#525252" stroke-width="5" stroke-linecap="round"/>
            <circle cx="0" cy="65" r="6" fill="#0a0a0a"/>
            <rect x="-25" y="85" width="50" height="70" rx="8" fill="#ffffff" stroke="#0a0a0a" stroke-width="5"/>
            <line x1="-10" y1="100" x2="-10" y2="140" stroke="#525252" stroke-width="4" stroke-linecap="round" opacity="0.6"/>
            <line x1="10" y1="100" x2="10" y2="140" stroke="#525252" stroke-width="4" stroke-linecap="round" opacity="0.6"/>
        </g>
    </g>
</svg>
